# xmcd
#
# Track frame offsets:
#       150
#       16700
#       28925
#       45960
#       62380
#       75357
#       90595
#       107737
#       120337
#       136387
#       152210
#       170770
#       183807
#       200597
#
# Disc length: 2879 seconds
#
# Revision: 2
# Processed by: cddbd v1.4PL0 Copyright (c) Steve Scherf et al.
# Submitted via: WhereIsIt 3.53
#
DISCID=a30b3d0e
DTITLE=Mr Music - Country No. 8-02
DYEAR=1900
DGENRE=Country
TTITLE0=Joe Diffie - Hollow Deep As Mine
TTITLE1=Deryl Dodd - On Earth As It Is In Texas
TTITLE2=Erin Hay - There Goes My Everything
TTITLE3=Chris Sears - Another Man's Havin' The Fun
TTITLE4=Star Room Boys - The Daydreamer
TTITLE5=Ben McPeak - If I Haven't Said I Love You (I Do)
TTITLE6=Bruce Robison and Kelly Willis - Friendless Marriage
TTITLE7=Dale Watson - Teresa Lynn
TTITLE8=Cindy Foss - Until The Bubble Breaks
TTITLE9=Matt Powell - I've Broken Her Heart Again
TTITLE10=Hillbilly Idol - Hillbilly Polka
TTITLE11=Morten Tinholt with Erik Lihm's Orch. - I Wonder
TTITLE12=Read Meat - Midwest Blues
TTITLE13=Keith Whitley - Does Fort Worth Ever Cross Your Mind
EXTD=
EXTT0=
EXTT1=
EXTT2=
EXTT3=
EXTT4=
EXTT5=
EXTT6=
EXTT7=
EXTT8=
EXTT9=
EXTT10=
EXTT11=
EXTT12=
EXTT13=
PLAYORDER=
